<svg xmlns="http://www.w3.org/2000/svg" width="600" height="600" viewBox="0 0 600 600">
  <g id="Group_58" data-name="Group 58" transform="translate(610 436)">
    <rect id="Rectangle_64" data-name="Rectangle 64" width="600" height="600" rx="90" transform="translate(-610 -436)" fill="#fff2df"/>
    <g id="Group_57" data-name="Group 57" transform="translate(-3204 -7670.042)">
      <path id="path20419" d="M303,541.306c-4.215-1.506-5.355-7.951-2-11.306,1.9-1.9,3.333-2,29.566-2,15.967,0,28.331.41,29.385.974,4.113,2.2,3.181,11.22-1.283,12.417-2.7.726-53.618.648-55.668-.085Zm-21.685-29.313c-4.663-1.879-5.6-7.437-1.849-10.962,2.284-2.145,3.081-2.278,10.75-1.785,10.357.665,22.534,4.606,30.409,9.842l5.874,3.905-21.5-.06c-11.825-.033-22.483-.456-23.685-.94Zm76.185-1.874c-9.385-2.028-16.731-5.231-26.517-11.561-15.609-10.1-28.969-15.064-43.74-16.26-8.9-.721-10.443-1.725-10.443-6.818,0-2.885.611-4.4,2.35-5.809,2.044-1.661,3.366-1.825,10.16-1.262,13.82,1.146,23.654,4.451,35.113,11.8,19.035,12.211,29.312,15.96,48.5,17.7,10.462.946,12.075,1.977,12.075,7.713,0,5.281-1.993,6.391-11.321,6.3A96.812,96.812,0,0,1,357.5,510.119Zm3.4-29.622c-12.578-2.507-17.278-4.535-31.6-13.633-15.788-10.03-25.087-13.46-40.017-14.759-5.068-.441-9.906-1.375-10.75-2.076-2.26-1.876-1.979-8.318.46-10.524,3.94-3.566,26.452.049,38.337,6.156,1.743.9,5.643,3.3,8.668,5.348a117.477,117.477,0,0,0,26.107,12.925c5.8,1.861,24.766,4.526,25.684,3.608.208-.208,1.658.067,3.221.612,4.8,1.672,5.9,7.769,2.181,12.1-1.845,2.149-12.175,2.263-22.292.247Zm4.6-30.145c-11.423-2.375-19.767-5.774-26.444-10.773L335.611,437h21.045c12.4,0,22.309.441,24.122,1.073,5.279,1.84,6.125,9.3,1.344,11.862-1.908,1.021-12.445,1.286-16.622.418Z" transform="translate(2562.894 7223.187)" fill="#113245"/>
      <g id="path2042cv27" transform="translate(3118.223 7273.573)">
        <path id="path20427" d="M-226.343,29.9c-1.425.543-6.535,1.121-11.355,1.283s-8.977.643-9.238,1.066-2.112.77-4.111.77c-3.121,0-17.719,3.662-24.047,6.032A194.651,194.651,0,0,0-300.166,51.5a145.27,145.27,0,0,0-66.974,93.568,68.952,68.952,0,0,0-1.445,11.037c-.009,2.364-.355,4.3-.776,4.294s-.607,3.2-.421,7.124c.2,4.315-.116,7.669-.81,8.5-.838,1.01-.843,1.57-.02,2.075.674.417,1.049,3.386.948,7.418-.1,3.7.076,7.405.385,8.239a47.388,47.388,0,0,1,1.1,7.325c1.056,11.518,6.516,28.04,14.117,42.719,6.759,13.054,8.008,14.948,20.341,30.954,6.113,7.935,12.755,16.952,14.759,20.041,13.717,21.147,20.017,40.624,20.118,62.229.049,10.045,2.059,19.987,4.622,22.862a17.24,17.24,0,0,0,4.974,3.517c6.189,2.733,12.456.933,13.758-3.949,1.181-4.428-.682-24.144-3.633-38.453-6.2-30.1-16.126-50.973-36.7-77.2-25.8-32.9-32.944-50.967-32.889-83.184.041-24.372,3.257-41.917,10.469-57.117a129,129,0,0,1,61.414-61.226c17.243-8.067,32.706-11.357,53.287-11.341,35.157.028,67.1,13.675,91.068,38.9,15.265,16.064,22.925,29.879,28.205,50.838,6.289,24.971,6.825,48.985,1.522,68.249-4.157,15.1-13.79,32.307-32.818,58.606-21.915,30.287-27.471,43.219-33.888,78.88a225.719,225.719,0,0,0-2.7,22.813l-.612,11.189,2.8,2.205c3.154,2.481,5.712,2.733,10.721,1.054,4.52-1.514,7.693-4.48,8.929-8.348.547-1.719,1.432-11.779,1.961-22.343.817-16.323,1.371-20.5,3.676-27.8q7.184-22.763,28.142-46.8c16.225-18.608,31.015-45.92,34.32-63.392.263-1.39,1.241-5.939,2.172-10.109,4.039-18.076,3.724-39.593-.888-60.924-8.215-37.994-32.605-71.892-66.687-92.685a209.3,209.3,0,0,0-24.364-12.139c-4.3-1.829-21.47-6.109-24.5-6.109-1.753,0-3.4-.355-3.673-.79s-4.278-.9-8.907-1.027-9.83-.7-11.556-1.262a8.527,8.527,0,0,0-5.732-.041Zm8.066,165.694a37.186,37.186,0,0,0-17.851,2.205A37.577,37.577,0,0,0-257.79,221.31c-.764,2.418-3.39,2.222-10.129-.758-10.211-4.516-19.873-2.535-24.914,5.112-2.517,3.82-2.631,13.3-.237,19.622,2.021,5.339,9.05,19.148,17.77,34.91,17.971,32.484,20.055,40.275,19.954,74.556l-.063,21.984h6.847l.709-15.922c.716-16.093-.072-26.887-2.97-40.658-2.736-13.007-3.916-15.624-23.691-52.6-11.562-21.625-13.574-26.348-13.647-32.071-.063-4.474.354-5.712,2.729-8.087,4.174-4.176,9.779-3.891,17.482.89,6.176,3.834,6.118,3.755,13.58,19.332,4.888,10.2,13.189,16.428,25.382,19.044,13.3,2.851,29.742-4.679,36.9-16.9a48.608,48.608,0,0,0,4.117-10.263c1.878-7.237,3.331-8.9,10.935-12.524,6.944-3.309,8.562-3.487,12.658-1.364,3.9,2.016,5.033,4.373,5.033,10.451,0,5.158-3.521,12.789-20.136,43.622-11.364,21.09-14.253,27.766-16.85,38.921-2.912,12.508-4.236,34.39-2.987,49.383l.731,8.745h6.387l-.357-17.263c-.66-31.987,2.821-47.731,15.636-70.69,10.324-18.5,12.919-23.364,17.691-33.177,7.906-16.248,8.826-24.916,3.337-31.439-5.559-6.606-13.657-7.865-23.261-3.619a42.763,42.763,0,0,1-6.612,2.527c-.494,0-2.05-2.615-3.459-5.813-3.487-7.909-12.344-16.426-20.26-19.482a37.186,37.186,0,0,0-8.792-2.184Zm10.638,7.906c.451.279-.1,1.8-1.22,3.372a14.873,14.873,0,0,0-2.042,3.449,62.671,62.671,0,0,1-4.044,7.191,72.3,72.3,0,0,0-4.044,7.094c0,.271,2.389.5,5.307.505s5.982.443,6.806.964l0,0c1.187.75-1.778,4.241-14.264,16.8-8.67,8.721-15.993,15.451-16.275,14.962s1.743-4.989,4.5-9.993,5.246-9.666,5.532-10.362c.385-.936-1.211-1.264-6.158-1.264-3.674,0-6.68-.37-6.68-.823,0-1.4,31.705-32.435,32.579-31.891Zm23.3,182.72a1.067,1.067,0,0,0-.079.073C-184.315,386.272-184.223,386.25-184.336,386.223Zm-32.292,3.013a.039.039,0,0,0,0,.01c.017,0,.028,0,.043,0l-.045-.012Zm-17.411,7.487a.5.5,0,0,0,.192.148Zm62.053,4.989-.01,0c-.024.017,0,.118.006.089s0-.063,0-.093Z" transform="translate(0)" fill="#ffa200"/>
        <path id="path1704" d="M-287.771,383.562c-7.844-2.874-9.821-8.126-10.951-29.087-.949-17.612-3.7-28.721-10.726-43.3-5.308-11.013-8.576-16.056-22.009-33.964-13.612-18.146-15.941-21.586-20.765-30.665-11.069-20.833-15.754-37.3-16.964-59.627-.254-4.678-.753-8.773-1.124-9.22-.5-.6-.487-.985.041-1.512.446-.446.749-3.06.819-7.061a146.636,146.636,0,0,1,5.018-33.29,146.927,146.927,0,0,1,48.754-73.014c17.98-14.35,40.231-24.965,59.824-28.54,2.931-.535,7.193-1.338,9.473-1.785a202.214,202.214,0,0,1,22.793-2.217A194.743,194.743,0,0,1-200.8,32.526c2.279.462,6.542,1.277,9.473,1.811,11,2.005,19.012,4.758,30.786,10.582a195.537,195.537,0,0,1,17.169,9.522c36.092,24.129,58.795,60.645,64.595,103.895,1.22,9.1,1.38,27.658.306,35.522-1.067,7.81-4.957,25.429-6.867,31.1-.874,2.6-3.806,9.247-6.516,14.783a173.662,173.662,0,0,1-24.331,37.594c-16.573,19.768-25.95,35.932-29.768,51.314-1.538,6.2-1.694,7.6-2.762,24.763-1.41,22.679-1.772,24.253-6.332,27.557-2.963,2.146-8.225,3.778-10.633,3.3a14.642,14.642,0,0,1-4.314-2.189l-2.56-1.839.231-3.348c1.366-19.8,2.87-30.819,6.233-45.678,5.21-23.014,11.87-36.869,29.884-62.164,7.89-11.08,16.091-23.338,20.257-30.279,4.244-7.071,10.408-19.99,12.23-25.63,6.988-21.639,6.324-49.71-1.848-78.175-4.991-17.386-12.934-30.889-26.64-45.292-29.963-31.486-73.338-45.013-117.632-36.685-30.934,5.816-61.593,26.892-80.093,55.059-12.812,19.506-17.909,37.3-18.963,66.217-.847,23.241,2.316,40.033,10.629,56.431,4.874,9.613,8.586,15.231,20.915,31.652,15.64,20.831,23.274,33.578,29.25,48.84a195.012,195.012,0,0,1,12.233,59.1c.306,8.9.275,9.227-1.038,10.876-2.51,3.154-6.443,4.023-10.869,2.4Z" transform="translate(0.006 0.009)" fill="#ffa200"/>
      </g>
    </g>
  </g>
</svg>
