<?xml version="1.0" standalone="no"?>
<!DOCTYPE svg PUBLIC "-//W3C//DTD SVG 20010904//EN"
 "http://www.w3.org/TR/2001/REC-SVG-20010904/DTD/svg10.dtd">
<svg version="1.0" xmlns="http://www.w3.org/2000/svg"
 width="924.000000pt" height="924.000000pt" viewBox="0 0 924.000000 924.000000"
 preserveAspectRatio="xMidYMid meet">
<metadata>
Created by potrace 1.14, written by Peter Selinger 2001-2017
</metadata>
<g transform="translate(0.000000,924.000000) scale(0.100000,-0.100000)"
fill="#000000" stroke="none">
<path d="M4581 9229 c-14 -5 -83 -14 -155 -20 -128 -10 -161 -14 -354 -44
-255 -40 -486 -116 -745 -246 -692 -348 -1201 -918 -1459 -1634 -60 -165 -115
-393 -128 -530 -7 -66 -16 -127 -21 -137 -5 -9 -9 -76 -9 -148 0 -93 -4 -139
-14 -158 -12 -24 -12 -30 0 -47 10 -13 14 -49 14 -119 0 -56 5 -130 10 -166 6
-36 17 -115 25 -177 34 -269 121 -528 286 -853 112 -222 156 -289 413 -630
281 -373 344 -469 450 -680 157 -316 235 -630 236 -949 0 -115 24 -289 51
-370 26 -80 76 -131 156 -161 67 -25 126 -25 180 -1 71 33 78 54 77 216 -4
411 -134 991 -309 1378 -118 261 -238 452 -510 812 -239 316 -347 481 -440
670 -155 314 -205 553 -205 985 0 637 104 1027 388 1459 361 548 964 962 1584
1085 319 64 730 62 1053 -4 479 -98 912 -334 1266 -692 367 -369 541 -711 649
-1273 34 -178 50 -357 50 -562 0 -606 -134 -927 -752 -1795 -382 -537 -497
-786 -607 -1323 -60 -287 -80 -446 -105 -815 -5 -75 -5 -76 27 -101 80 -64
133 -73 234 -38 70 23 135 75 163 129 23 44 34 150 55 495 22 369 38 460 111
650 102 264 266 522 538 844 271 322 506 724 622 1065 33 97 110 449 131 597
20 152 23 485 4 644 -60 518 -206 933 -470 1330 -109 165 -215 292 -385 460
-244 243 -439 383 -751 541 -99 50 -218 105 -264 123 -104 40 -356 105 -471
121 -47 7 -93 17 -103 22 -10 5 -89 14 -175 19 -86 6 -185 17 -220 25 -72 16
-88 16 -121 3z"/>
<path d="M4528 5910 c-169 -31 -320 -119 -437 -255 -43 -51 -75 -107 -145
-255 -18 -39 -67 -38 -173 4 -49 19 -111 40 -137 47 -66 16 -190 7 -249 -19
-67 -30 -140 -108 -158 -169 -21 -74 -17 -224 9 -308 26 -87 166 -368 347
-700 225 -411 295 -561 346 -744 54 -195 61 -275 66 -763 l5 -448 63 0 62 0 6
78 c15 188 19 523 8 660 -20 232 -66 473 -122 627 -34 95 -183 395 -368 738
-258 481 -311 605 -311 727 0 79 12 109 62 157 81 77 187 71 339 -19 106 -62
130 -94 236 -302 91 -179 101 -196 177 -272 94 -94 196 -150 336 -185 227 -57
492 22 671 201 55 55 77 88 117 171 27 57 57 133 67 169 21 81 55 142 98 174
18 14 78 47 133 73 124 59 177 63 250 18 64 -40 86 -80 92 -169 8 -122 -42
-239 -320 -761 -294 -550 -355 -683 -403 -875 -67 -264 -97 -666 -75 -1003
l13 -207 61 0 61 0 0 392 c0 268 4 426 13 498 44 344 115 538 358 977 264 477
387 738 414 881 16 82 9 186 -17 237 -28 53 -97 120 -153 148 -38 19 -61 22
-150 22 -101 -1 -109 -2 -208 -43 -57 -24 -111 -42 -120 -40 -10 2 -40 46 -70
102 -114 214 -274 357 -467 416 -79 24 -249 35 -327 20z m427 -169 c-6 -21
-24 -52 -146 -260 -43 -74 -76 -138 -73 -142 3 -5 42 -10 87 -10 110 -2 141
-9 145 -35 4 -26 -154 -201 -368 -407 -170 -164 -237 -223 -247 -214 -7 8 50
129 133 280 36 65 63 125 60 133 -4 10 -25 14 -79 14 -102 0 -167 10 -167 25
0 27 624 635 651 635 6 0 8 -9 4 -19z"/>
<path d="M4720 2093 c1 -15 136 -105 215 -143 97 -47 231 -92 345 -115 113
-23 332 -18 371 8 53 35 67 120 30 180 -28 46 -60 58 -181 68 -132 10 -780 12
-780 2z"/>
<path d="M3617 2068 c-53 -14 -77 -55 -77 -133 0 -107 9 -112 270 -145 331
-41 426 -80 875 -354 197 -120 312 -167 513 -207 128 -26 358 -37 419 -20 74
20 115 126 76 201 -30 57 -70 73 -207 81 -371 22 -616 107 -991 344 -77 49
-175 104 -219 122 -206 87 -538 143 -659 111z"/>
<path d="M3611 1462 c-50 -25 -74 -63 -78 -124 -7 -102 32 -131 202 -148 314
-31 548 -118 889 -329 217 -135 344 -189 545 -232 122 -25 400 -38 454 -20 53
18 77 53 77 115 0 107 -33 132 -200 152 -220 26 -363 52 -465 84 -131 41 -326
137 -498 244 -283 177 -421 228 -697 261 -160 19 -187 19 -229 -3z"/>
<path d="M3612 841 c-78 -50 -95 -152 -35 -213 27 -26 41 -31 114 -39 46 -5
253 -8 459 -7 l375 3 -80 51 c-112 72 -191 110 -308 149 -139 46 -241 65 -377
71 -104 5 -118 4 -148 -15z"/>
<path d="M4100 271 c-92 -14 -125 -57 -118 -149 6 -73 42 -107 120 -117 29 -3
283 -5 564 -3 495 3 513 4 534 23 70 62 65 207 -8 237 -31 13 -1018 21 -1092
9z"/>
</g>
</svg>
