<svg xmlns="http://www.w3.org/2000/svg" xmlns:xlink="http://www.w3.org/1999/xlink" width="88" height="25" viewBox="0 0 88 25">
  <defs>
    <clipPath id="clip-path">
      <path id="Path_21" data-name="Path 21" d="M76.931,102.111a.422.422,0,0,0-.48-.344.4.4,0,0,0-.229.115l-2.17,2.17-1.7-3.244a.414.414,0,0,0-.563-.177.482.482,0,0,0-.177.177l-.928,1.773-2.337-4.36a.413.413,0,0,0-.563-.167.434.434,0,0,0-.219.3L65.3,112.813l6.04,3.39a1.268,1.268,0,0,0,1.22,0l6.092-3.39Z" transform="translate(-65.3 -98.001)"/>
    </clipPath>
    <linearGradient id="linear-gradient" x1="0.537" y1="0.247" x2="0.462" y2="0.269" gradientUnits="objectBoundingBox">
      <stop offset="0" stop-color="#a52714"/>
      <stop offset="0.4" stop-color="#a52714" stop-opacity="0.502"/>
      <stop offset="0.8" stop-color="#a52714" stop-opacity="0"/>
    </linearGradient>
    <linearGradient id="linear-gradient-2" x1="0.474" y1="0.308" x2="0.455" y2="0.326" gradientUnits="objectBoundingBox">
      <stop offset="0" stop-color="#a52714" stop-opacity="0.8"/>
      <stop offset="0.5" stop-color="#a52714" stop-opacity="0.212"/>
      <stop offset="1" stop-color="#a52714" stop-opacity="0"/>
    </linearGradient>
    <linearGradient id="linear-gradient-3" x1="-5.175" y1="7.275" x2="-4.783" y2="7.56" gradientUnits="objectBoundingBox">
      <stop offset="0" stop-color="#fff" stop-opacity="0.102"/>
      <stop offset="1" stop-color="#fff" stop-opacity="0"/>
    </linearGradient>
  </defs>
  <g id="Group_71" data-name="Group 71" transform="translate(-405 -10033)">
    <g id="Layer_3" transform="translate(405 10033)">
      <path id="Path_12" data-name="Path 12" d="M86.6,25H1.4C.632,25,0,24.6,0,24.107V.893C0,.4.632,0,1.4,0H86.6c.772,0,1.4.4,1.4.893V24.107C88,24.6,87.368,25,86.6,25Z" fill="#fff"/>
    </g>
    <g id="Layer_1" transform="translate(414.897 10034.7)">
      <g id="Group_69" data-name="Group 69" transform="translate(0 2.524)">
        <g id="XMLID_19_">
          <rect id="XMLID_21_" width="20.028" height="20.028" fill="none"/>
          <g id="Group_67" data-name="Group 67" transform="translate(3.338 0.835)">
            <g id="Group_66" data-name="Group 66" clip-path="url(#clip-path)">
              <path id="Path_13" data-name="Path 13" d="M65.3,112.844l2.264-14.458a.409.409,0,0,1,.48-.344.433.433,0,0,1,.3.219l2.337,4.36.928-1.773a.414.414,0,0,1,.563-.177.482.482,0,0,1,.177.177l6.3,12Z" transform="translate(-65.3 -98.032)" fill="#ffa000"/>
              <path id="Path_14" data-name="Path 14" d="M44.357,90.939,33.3,90v20.028l3.338-4.381Z" transform="translate(-36.638 -90.835)" opacity="0.12" fill="url(#linear-gradient)"/>
              <path id="Path_15" data-name="Path 15" d="M73.113,146.5l-2.431-4.6L65.3,152.133Z" transform="translate(-65.3 -137.321)" fill="#f57c00"/>
              <path id="Path_16" data-name="Path 16" d="M33.3,90H53.328v20.028H33.3Z" transform="translate(-36.638 -90.835)" opacity="0.2" fill="url(#linear-gradient-2)"/>
              <path id="Path_17" data-name="Path 17" d="M78.652,145.021l-1.732-10.713a.422.422,0,0,0-.48-.344.4.4,0,0,0-.229.115L65.3,145.021l6.04,3.39a1.268,1.268,0,0,0,1.22,0Z" transform="translate(-65.3 -130.209)" fill="#ffca28"/>
              <path id="Path_18" data-name="Path 18" d="M76.841,102.111a.422.422,0,0,0-.48-.344.4.4,0,0,0-.229.115l-2.17,2.17-1.7-3.244a.414.414,0,0,0-.563-.177.482.482,0,0,0-.177.177l-.928,1.773-2.337-4.36a.413.413,0,0,0-.563-.167.434.434,0,0,0-.219.3L65.21,112.813H65.2l.01.01.063.031,8.689-8.7,2.17-2.17a.416.416,0,0,1,.595,0,.373.373,0,0,1,.115.229l1.711,10.609.021-.01Zm-11.61,10.682L67.474,98.46a.409.409,0,0,1,.48-.344.434.434,0,0,1,.3.219l2.337,4.36.928-1.773a.414.414,0,0,1,.563-.177.482.482,0,0,1,.177.177l1.669,3.171Z" transform="translate(-65.21 -98.001)" fill="rgba(255,255,255,0.2)"/>
              <path id="Path_19" data-name="Path 19" d="M72.56,242.48a1.268,1.268,0,0,1-1.22,0L65.31,239.1l-.01.094,6.04,3.39a1.268,1.268,0,0,0,1.22,0l6.092-3.39-.01-.094Z" transform="translate(-65.3 -224.381)" fill="#a52714" opacity="0.2"/>
              <path id="Path_20" data-name="Path 20" d="M76.931,102.111a.422.422,0,0,0-.48-.344.4.4,0,0,0-.229.115l-2.17,2.17-1.7-3.244a.414.414,0,0,0-.563-.177.482.482,0,0,0-.177.177l-.928,1.773-2.337-4.36a.413.413,0,0,0-.563-.167.434.434,0,0,0-.219.3L65.3,112.813l6.04,3.39a1.268,1.268,0,0,0,1.22,0l6.092-3.39Z" transform="translate(-65.3 -98.001)" fill="url(#linear-gradient-3)"/>
            </g>
          </g>
        </g>
        <g id="Group_68" data-name="Group 68" transform="translate(22.135 5.57)" opacity="0.54">
          <path id="Path_22" data-name="Path 22" d="M246.731,153.955H245.5V144.4h5.581v1.179h-4.35v3.14h3.933v1.147h-3.922v4.089Z" transform="translate(-245.5 -144.296)"/>
          <path id="Path_23" data-name="Path 23" d="M306.581,144.881a.882.882,0,1,1,.25-.615A.859.859,0,0,1,306.581,144.881Zm0,8.178H305.35v-6.54h1.231Z" transform="translate(-298.883 -143.4)"/>
          <path id="Path_24" data-name="Path 24" d="M333.331,178.5H332.1v-6.541h1.179v1.064h.052a1.637,1.637,0,0,1,.772-.876,2.2,2.2,0,0,1,1.127-.344,2.376,2.376,0,0,1,.918.156l-.469,1.147a1.828,1.828,0,0,0-.657-.094,1.59,1.59,0,0,0-1.179.532,1.891,1.891,0,0,0-.511,1.377Z" transform="translate(-323.066 -168.837)"/>
          <path id="Path_25" data-name="Path 25" d="M370.638,178.179a3.153,3.153,0,0,1-2.41-.991,3.513,3.513,0,0,1-.928-2.493,3.653,3.653,0,0,1,.9-2.462A2.924,2.924,0,0,1,370.5,171.2a3,3,0,0,1,2.326.949,3.6,3.6,0,0,1,.876,2.535l-.01.229h-5.164a2.252,2.252,0,0,0,.657,1.565,1.987,1.987,0,0,0,1.419.574,1.774,1.774,0,0,0,1.794-1.127l1.1.459a2.873,2.873,0,0,1-1.054,1.273A3.072,3.072,0,0,1,370.638,178.179ZM372.4,173.9a1.754,1.754,0,0,0-.511-1.064,1.845,1.845,0,0,0-1.408-.511,1.762,1.762,0,0,0-1.179.428,2.175,2.175,0,0,0-.688,1.147Z" transform="translate(-354.595 -168.3)"/>
          <path id="Path_26" data-name="Path 26" d="M440.363,154.174a2.732,2.732,0,0,1-1.346-.323,2.224,2.224,0,0,1-.887-.8h-.052v.908H436.9V144.4h1.231v3.015l-.052.908h.052a2.3,2.3,0,0,1,.887-.8,2.85,2.85,0,0,1,1.346-.323,2.883,2.883,0,0,1,2.191,1,3.816,3.816,0,0,1,0,4.965A2.859,2.859,0,0,1,440.363,154.174Zm-.209-1.127a1.962,1.962,0,0,0,1.471-.647,2.685,2.685,0,0,0,0-3.421,1.962,1.962,0,0,0-1.471-.647,1.936,1.936,0,0,0-1.471.636,2.437,2.437,0,0,0-.605,1.721,2.391,2.391,0,0,0,.605,1.721A1.952,1.952,0,0,0,440.155,153.048Z" transform="translate(-416.934 -144.296)"/>
          <path id="Path_27" data-name="Path 27" d="M508.241,178.179a2.55,2.55,0,0,1-1.742-.605,2.135,2.135,0,0,1,.125-3.265,3.346,3.346,0,0,1,2.045-.605,3.57,3.57,0,0,1,1.773.4v-.188a1.489,1.489,0,0,0-.49-1.158,1.762,1.762,0,0,0-1.21-.438,1.921,1.921,0,0,0-.97.25,1.259,1.259,0,0,0-.595.7l-1.127-.48a2.53,2.53,0,0,1,.9-1.085,2.873,2.873,0,0,1,1.763-.5,3.031,3.031,0,0,1,2.086.73,2.613,2.613,0,0,1,.824,2.065v3.964h-1.179v-.908h-.052A2.41,2.41,0,0,1,508.241,178.179Zm.2-1.127a1.978,1.978,0,0,0,1.377-.563,1.751,1.751,0,0,0,.626-1.346,2.435,2.435,0,0,0-1.565-.428,2.011,2.011,0,0,0-1.346.386,1.176,1.176,0,0,0-.459.908.864.864,0,0,0,.417.761A1.665,1.665,0,0,0,508.439,177.052Z" transform="translate(-478.647 -168.3)"/>
          <path id="Path_28" data-name="Path 28" d="M569.848,178.268a2.918,2.918,0,0,1-1.8-.532A3.1,3.1,0,0,1,567,176.4l1.1-.459a1.8,1.8,0,0,0,1.773,1.231,1.611,1.611,0,0,0,.939-.25.789.789,0,0,0,.365-.668c0-.428-.3-.72-.9-.866l-1.325-.323a3.219,3.219,0,0,1-1.189-.605,1.466,1.466,0,0,1-.563-1.21,1.669,1.669,0,0,1,.772-1.408,3.279,3.279,0,0,1,3.369-.146,2.14,2.14,0,0,1,.97,1.127l-1.064.438a1.454,1.454,0,0,0-1.492-.866,1.69,1.69,0,0,0-.918.229.7.7,0,0,0-.376.615c0,.376.292.626.866.762l1.294.3a2.525,2.525,0,0,1,1.367.73,1.777,1.777,0,0,1,.438,1.179,1.836,1.836,0,0,1-.72,1.471A2.808,2.808,0,0,1,569.848,178.268Z" transform="translate(-533.463 -168.39)"/>
          <path id="Path_29" data-name="Path 29" d="M627.138,178.179a3.153,3.153,0,0,1-2.41-.991,3.513,3.513,0,0,1-.928-2.493,3.653,3.653,0,0,1,.9-2.462A2.924,2.924,0,0,1,627,171.2a3,3,0,0,1,2.326.949,3.6,3.6,0,0,1,.876,2.535l-.01.229h-5.164a2.252,2.252,0,0,0,.657,1.565,1.986,1.986,0,0,0,1.419.574,1.774,1.774,0,0,0,1.794-1.127l1.1.459a2.872,2.872,0,0,1-1.054,1.273A3.072,3.072,0,0,1,627.138,178.179ZM628.9,173.9a1.755,1.755,0,0,0-.511-1.064,1.844,1.844,0,0,0-1.408-.511,1.762,1.762,0,0,0-1.179.428,2.175,2.175,0,0,0-.688,1.147Z" transform="translate(-584.338 -168.3)"/>
        </g>
      </g>
      <g id="Group_70" data-name="Group 70" transform="translate(22.052)" opacity="0.54">
        <path id="Path_30" data-name="Path 30" d="M244.7,70.686V66.2h1.617a1.3,1.3,0,0,1,.908.344,1.111,1.111,0,0,1,.386.876.967.967,0,0,1-.167.563,1.06,1.06,0,0,1-.438.365v.021a1.133,1.133,0,0,1,.542.386.993.993,0,0,1,.209.636,1.2,1.2,0,0,1-.407.918,1.387,1.387,0,0,1-.949.365h-1.7Zm.574-2.556h1.043a.655.655,0,0,0,.522-.219.674.674,0,0,0,.2-.469.709.709,0,0,0-.188-.469.618.618,0,0,0-.5-.209h-1.074V68.13Zm0,2.013h1.158a.7.7,0,0,0,.542-.229.765.765,0,0,0,.209-.511.721.721,0,0,0-.209-.5.71.71,0,0,0-.553-.229h-1.137v1.471Z" transform="translate(-244.7 -66.158)"/>
        <path id="Path_31" data-name="Path 31" d="M283.212,82.867h-.553v-.428h-.021a1.063,1.063,0,0,1-.4.376,1.1,1.1,0,0,1-.574.156,1.068,1.068,0,0,1-.876-.355,1.387,1.387,0,0,1-.292-.939V79.8h.574v1.784c0,.574.25.855.761.855a.7.7,0,0,0,.584-.292,1.078,1.078,0,0,0,.23-.668V79.8h.574v3.067Z" transform="translate(-276.766 -78.34)"/>
        <path id="Path_32" data-name="Path 32" d="M313.9,66.5a.385.385,0,0,1-.292.115.428.428,0,0,1-.292-.115.385.385,0,0,1-.115-.292.428.428,0,0,1,.115-.292.385.385,0,0,1,.292-.115.428.428,0,0,1,.292.115.385.385,0,0,1,.115.292A.428.428,0,0,1,313.9,66.5Zm0,3.828h-.574V67.26h.574Z" transform="translate(-306.054 -65.8)"/>
        <path id="Path_33" data-name="Path 33" d="M328.274,70.686H327.7V66.2h.574Z" transform="translate(-319.042 -66.158)"/>
        <path id="Path_34" data-name="Path 34" d="M339.823,74.947a.948.948,0,0,1-.73-.261,1,1,0,0,1-.25-.73v-1.6H338.3v-.522h.542V70.9h.574v.939h.751v.522h-.751v1.565c0,.334.136.5.417.5a.644.644,0,0,0,.261-.052l.2.49A1.11,1.11,0,0,1,339.823,74.947Z" transform="translate(-328.536 -70.368)"/>
        <path id="Path_35" data-name="Path 35" d="M378.682,82.867H378.1l-.762-2.358-.761,2.358h-.584L375,79.8h.605l.678,2.316h.01l.761-2.316h.595l.761,2.316h.01L379.1,79.8h.584Z" transform="translate(-361.408 -78.34)"/>
        <path id="Path_36" data-name="Path 36" d="M424.1,66.5a.385.385,0,0,1-.292.115.428.428,0,0,1-.292-.115.385.385,0,0,1-.115-.292.428.428,0,0,1,.115-.292.385.385,0,0,1,.292-.115.428.428,0,0,1,.292.115.385.385,0,0,1,.115.292A.428.428,0,0,1,424.1,66.5Zm0,3.828h-.574V67.26h.574Z" transform="translate(-404.759 -65.8)"/>
        <path id="Path_37" data-name="Path 37" d="M436.923,74.947a.948.948,0,0,1-.73-.261,1,1,0,0,1-.25-.73v-1.6H435.4v-.522h.542V70.9h.574v.939h.751v.522h-.762v1.565c0,.334.136.5.417.5a.644.644,0,0,0,.261-.052l.2.49A1,1,0,0,1,436.923,74.947Z" transform="translate(-415.507 -70.368)"/>
        <path id="Path_38" data-name="Path 38" d="M459.684,66.21v1.419l-.021.428h.021a1.063,1.063,0,0,1,.4-.376,1.131,1.131,0,0,1,.574-.156,1.06,1.06,0,0,1,.866.355,1.39,1.39,0,0,1,.3.939V70.7h-.574V68.9c0-.563-.25-.855-.761-.855a.721.721,0,0,0-.584.282,1.048,1.048,0,0,0-.229.657v1.7H459.1V66.2h.584Z" transform="translate(-436.735 -66.158)"/>
      </g>
    </g>
  </g>
</svg>
